<svg id="Capa_1" enable-background="new 0 0 512.003 512.003" height="512" viewBox="0 0 512.003 512.003" width="512" xmlns="http://www.w3.org/2000/svg"><g><g><path d="m402.34 254.252c10.587 0 20.796 1.615 30.397 4.609v-190.282c0-8.219-6.724-14.943-14.943-14.943h-395.561c-8.219 0-14.943 6.724-14.943 14.943v268.962c0 8.219 6.724 14.943 14.943 14.943h278.23c1.958-54.582 46.816-98.232 101.877-98.232z" fill="#ffc20c"/><path d="m68.673 337.541v-268.962c0-8.219 6.724-14.943 14.943-14.943h-61.383c-8.219 0-14.943 6.724-14.943 14.943v268.962c0 8.219 6.724 14.943 14.943 14.943h61.383c-8.219 0-14.943-6.724-14.943-14.943z" fill="#ffa90f"/><path d="m345.055 271.86-78.466-71.368-21.361 19.09c-14.36 12.833-36.07 12.833-50.43 0l-21.361-19.09-161.995 147.341c2.726 2.856 6.555 4.651 10.791 4.651h278.23c1.203-33.528 18.59-62.93 44.592-80.624z" fill="#ffd301"/><path d="m83.616 352.484c-8.219 0-14.943-6.724-14.943-14.943v-41.762l-57.231 52.054c2.719 2.849 6.522 4.624 10.715 4.647.026 0 .05.004.076.004z" fill="#ffc20c"/><path d="m417.793 53.635h-395.561c-4.236 0-8.065 1.795-10.791 4.651l183.357 163.864c14.36 12.833 36.07 12.833 50.43 0l183.356-163.864c-2.726-2.856-6.555-4.651-10.791-4.651z" fill="#fee55a"/><path d="m68.673 68.579c0-8.219 6.724-14.943 14.943-14.943h-61.384c-4.236 0-8.065 1.795-10.791 4.651l57.231 51.147v-40.855z" fill="#ffd301"/><circle cx="398.619" cy="352.484" fill="#ff656f" r="105.672"/><path d="m336.281 352.484c0-50.935 36.038-93.448 84.005-103.445-6.994-1.458-14.24-2.227-21.667-2.227-58.361 0-105.672 47.311-105.672 105.672s47.311 105.672 105.672 105.672c7.427 0 14.673-.77 21.667-2.227-47.967-9.997-84.005-52.511-84.005-103.445z" fill="#ff4756"/></g><g><path d="m440.447 247.346v-58.496c0-4.142-3.357-7.5-7.5-7.5s-7.5 3.358-7.5 7.5v53.737c-8.54-2.067-17.451-3.17-26.617-3.17-22.247 0-43.013 6.457-60.529 17.588l-60.245-53.841 147.391-131.72v82.407c0 4.142 3.357 7.5 7.5 7.5s7.5-3.358 7.5-7.5v-85.166c0-12.375-10.068-22.443-22.443-22.443h-180.28c-4.143 0-7.5 3.358-7.5 7.5s3.357 7.5 7.5 7.5h176.629l-173.913 155.422c-11.524 10.301-28.909 10.3-40.434 0l-173.91-155.423h176.628c4.143 0 7.5-3.358 7.5-7.5s-3.357-7.5-7.5-7.5h-180.281c-12.375 0-22.443 10.068-22.443 22.444v268.962c0 12.375 10.068 22.443 22.443 22.443h263.469c3.874 58.919 53.034 105.672 112.917 105.672 62.403 0 113.173-50.769 113.173-113.172.001-47.716-29.684-88.628-71.555-105.244zm-425.447 87.542v-263.445l147.392 131.723zm11.096 10.202 147.552-131.865 16.363 14.624c17.224 15.392 43.201 15.393 60.426 0l16.363-14.624 59.148 52.86c-22.83 19.265-37.956 47.381-40.035 79.005zm372.734 105.672c-54.132 0-98.172-44.04-98.172-98.172s44.04-98.172 98.172-98.172c54.133 0 98.173 44.04 98.173 98.172s-44.04 98.172-98.173 98.172z"/><path d="m398.83 281.408c-39.25 0-71.182 31.932-71.182 71.182s31.932 71.182 71.182 71.182c23.617 0 45.647-11.679 58.929-31.242 2.326-3.427 1.435-8.091-1.992-10.418-3.427-2.326-8.092-1.434-10.418 1.992-10.486 15.446-27.877 24.668-46.519 24.668-30.979 0-56.182-25.203-56.182-56.182s25.203-56.182 56.182-56.182 56.182 25.203 56.182 56.182c0 3.573-2.906 6.479-6.479 6.479s-6.479-2.906-6.479-6.479c0-23.833-19.391-43.224-43.225-43.224s-43.224 19.39-43.224 43.224 19.39 43.224 43.224 43.224c17.178 0 32.045-10.074 39.01-24.622 14.399 8.31 32.171-2.287 32.171-18.601.002-39.251-31.93-71.183-71.18-71.183zm0 99.405c-15.563 0-28.224-12.661-28.224-28.224s12.661-28.224 28.224-28.224 28.225 12.661 28.225 28.224-12.661 28.224-28.225 28.224z"/></g></g></svg>