<svg height="378pt" viewBox="0 1 378 378.67605" width="378pt" xmlns="http://www.w3.org/2000/svg"><path d="m373.023438 157.914062h-366.367188c-3.492188 0-6.316406-2.828124-6.316406-6.316406 0-3.488281 2.828125-6.316406 6.316406-6.316406h366.363281c3.488281 0 6.316407 2.828125 6.316407 6.316406 0 3.488282-2.828126 6.316406-6.3125 6.316406zm0 0" fill="#5a6470"/><path d="m177.203125 284.25s12.632813-44.21875 28.21875-59.644531c.359375 8.160156 1.507813 16.265625 3.429687 24.203125 3.640626 15.285156 10.613282 29.574218 20.421876 41.847656 17.421874 21.765625 13.902343 53.53125-7.863282 70.953125-8.957031 7.171875-20.09375 11.078125-31.566406 11.070313 0 0-1.230469-.011719-1.84375-.027344-26.765625-1.246094-48.015625-22.957032-48.691406-49.738282-.113282-7.003906 1.242187-13.953124 3.992187-20.394531 4.613281-11.941406 7.519531-24.46875 8.636719-37.222656 9.515625 4.714844 18.078125 11.136719 25.265625 18.953125zm0 0" fill="#dd3e46"/><path d="m278.269531 284.25s12.636719-44.21875 28.21875-59.644531c.359375 8.160156 1.507813 16.265625 3.429688 24.203125 3.640625 15.285156 10.613281 29.574218 20.421875 41.847656 17.421875 21.765625 13.902344 53.53125-7.863282 70.953125-8.957031 7.171875-20.09375 11.078125-31.566406 11.070313 0 0-1.230468-.011719-1.84375-.027344-26.761718-1.246094-48.015625-22.957032-48.6875-49.738282-.117187-7.003906 1.242188-13.953124 3.988282-20.394531 4.613281-11.941406 7.519531-24.46875 8.636718-37.222656 9.515625 4.714844 18.078125 11.136719 25.265625 18.953125zm0 0" fill="#dd3e46"/><path d="m76.136719 284.25s12.632812-44.21875 28.21875-59.644531c.359375 8.160156 1.507812 16.265625 3.429687 24.203125 3.640625 15.285156 10.613282 29.574218 20.421875 41.847656 17.421875 21.765625 13.902344 53.535156-7.863281 70.957031-8.960938 7.167969-20.09375 11.074219-31.566406 11.070313 0 0-1.230469-.015625-1.84375-.03125-26.761719-1.246094-48.015625-22.957032-48.6875-49.738282-.117188-7 1.242187-13.949218 3.984375-20.394531 4.613281-11.9375 7.523437-24.46875 8.640625-37.21875 9.515625 4.710938 18.078125 11.132813 25.265625 18.949219zm0 0" fill="#dd3e46"/><path d="m126.671875 107.382812h37.898437v88.433594h-37.898437zm0 0" fill="#55b56a"/><path d="m240.371094 151.597656c0 20.933594-16.96875 37.902344-37.898438 37.902344-20.933594 0-37.902344-16.96875-37.902344-37.902344 0-20.929687 16.96875-37.898437 37.902344-37.898437 20.929688 0 37.898438 16.96875 37.898438 37.898437zm0 0" fill="#fdbd40"/><path d="m126.671875 151.597656c0 17.445313-14.140625 31.585938-31.585937 31.585938-17.441407 0-31.582032-14.140625-31.582032-31.585938 0-17.441406 14.140625-31.582031 31.582032-31.582031 17.445312 0 31.585937 14.140625 31.585937 31.582031zm0 0" fill="#fdbd40"/><path d="m240.371094 107.382812h50.535156v88.433594h-50.535156zm0 0" fill="#d3843d"/><path d="m265.636719 107.382812h25.269531v88.433594h-25.269531zm0 0" fill="#f6bf9b"/><path d="m56.550781 113.699219h6.953125v75.800781h-6.953125c-17.089843 0-30.945312-13.855469-30.945312-30.945312v-13.910157c0-17.089843 13.855469-30.945312 30.945312-30.945312zm0 0" fill="#dd3e46"/><g fill="#fdbd40"><path d="m145.621094 75.796875c-3.488282.003906-6.316406-2.820313-6.316406-6.308594 0 0 0-.003906 0-.007812.210937-6.210938 3.410156-11.9375 8.59375-15.371094 3.226562-2.6875 4.039062-3.632813 4.039062-5.660156 0-2.128907-.984375-3.128907-4.046875-5.675781-5.179687-3.445313-8.375-9.175782-8.585937-15.390626.210937-6.210937 3.410156-11.941406 8.585937-15.378906 3.0625-2.554687 4.046875-3.550781 4.046875-5.6875 0-3.488281 2.828125-6.316406 6.316406-6.316406 3.488282 0 6.316406 2.828125 6.316406 6.316406-.207031 6.214844-3.40625 11.949219-8.585937 15.390625-3.058594 2.546875-4.046875 3.546875-4.046875 5.675781 0 2.132813.988281 3.132813 4.046875 5.6875 5.179687 3.4375 8.378906 9.164063 8.585937 15.378907-.210937 6.210937-3.410156 11.9375-8.59375 15.371093-3.226562 2.6875-4.039062 3.632813-4.039062 5.664063 0 3.484375-2.824219 6.3125-6.3125 6.316406 0-.003906 0-.003906-.003906-.003906zm0 0"/><path d="m177.203125 75.796875c-3.484375.003906-6.3125-2.820313-6.316406-6.308594 0 0 0-.003906 0-.007812.210937-6.210938 3.414062-11.9375 8.59375-15.371094 3.226562-2.6875 4.042969-3.632813 4.042969-5.660156 0-2.128907-.988282-3.128907-4.046876-5.675781-5.179687-3.445313-8.378906-9.175782-8.585937-15.390626.207031-6.210937 3.40625-11.941406 8.585937-15.378906 3.058594-2.554687 4.046876-3.550781 4.046876-5.6875 0-3.488281 2.828124-6.316406 6.316406-6.316406 3.488281 0 6.316406 2.828125 6.316406 6.316406-.210938 6.214844-3.410156 11.949219-8.589844 15.390625-3.058594 2.546875-4.046875 3.546875-4.046875 5.675781 0 2.132813.988281 3.132813 4.046875 5.6875 5.179688 3.4375 8.378906 9.164063 8.589844 15.378907-.210938 6.210937-3.414062 11.9375-8.59375 15.371093-3.226562 2.6875-4.042969 3.632813-4.042969 5.664063.003907 3.484375-2.820312 6.3125-6.308593 6.316406-.003907-.003906-.003907-.003906-.007813-.003906zm0 0"/><path d="m208.789062 75.796875c-3.488281.003906-6.316406-2.820313-6.316406-6.308594 0 0 0-.003906 0-.007812.207032-6.210938 3.410156-11.9375 8.59375-15.371094 3.222656-2.6875 4.039063-3.632813 4.039063-5.660156 0-2.128907-.988281-3.128907-4.046875-5.675781-5.179688-3.445313-8.378906-9.175782-8.585938-15.390626.207032-6.210937 3.40625-11.941406 8.585938-15.378906 3.058594-2.554687 4.046875-3.550781 4.046875-5.6875 0-3.488281 2.828125-6.316406 6.316406-6.316406s6.316406 2.828125 6.316406 6.316406c-.210937 6.214844-3.410156 11.949219-8.585937 15.390625-3.0625 2.546875-4.046875 3.546875-4.046875 5.675781 0 2.132813.984375 3.132813 4.046875 5.6875 5.175781 3.4375 8.375 9.164063 8.585937 15.378907-.210937 6.210937-3.414062 11.9375-8.59375 15.371093-3.226562 2.6875-4.039062 3.632813-4.039062 5.664063 0 3.484375-2.824219 6.3125-6.3125 6.316406 0-.003906-.003907-.003906-.003907-.003906zm0 0"/><path d="m189.835938 315.832031-18.949219 25.265625 18.957031 31.582032 18.945312-31.582032zm0 0"/><path d="m290.90625 315.832031-18.953125 25.265625 18.957031 31.582032 18.945313-31.582032zm0 0"/><path d="m88.769531 315.832031-18.949219 25.265625 18.957032 31.582032 18.945312-31.582032zm0 0"/></g><path d="m373.023438 145.28125h-75.800782v-37.898438c0-3.488281-2.824218-6.316406-6.3125-6.316406 0 0-.003906 0-.007812 0h-50.53125c-3.488282-.003906-6.316406 2.820313-6.316406 6.308594v.007812 13.332032c-16.980469-17.445313-44.882813-17.820313-62.328126-.839844-.28125.273438-.5625.554688-.839843.839844v-13.332032c.003906-3.488281-2.824219-6.316406-6.308594-6.316406-.003906 0-.003906 0-.007813 0h-37.902343c-3.484375-.003906-6.3125 2.820313-6.316407 6.308594v.007812 16.046876c-14.34375-12.972657-36.183593-12.972657-50.53125 0v-9.730469c0-3.488281-2.824218-6.316407-6.308593-6.316407-.003907 0-.007813 0-.007813 0h-6.953125c-20.570312.023438-37.242187 16.691407-37.265625 37.261719v.636719h-12.628906c-3.492188 0-6.316406 2.828125-6.316406 6.316406 0 3.488282 2.828125 6.316406 6.316406 6.316406h12.632812v.636719c.023438 20.570313 16.691407 37.238281 37.265626 37.265625h6.949218c3.488282 0 6.316406-2.824218 6.316406-6.3125 0 0 0-.003906 0-.007812v-9.730469c14.347657 12.976563 36.1875 12.976563 50.535157 0v16.046875c-.003907 3.488281 2.820312 6.316406 6.308593 6.316406h.007813 37.898437c3.488282.003906 6.316407-2.820312 6.316407-6.308594 0-.003906 0-.003906 0-.007812v-13.332031c16.980469 17.441406 44.882812 17.820312 62.328125.839843.28125-.273437.5625-.554687.839844-.839843v13.332031c-.003907 3.488281 2.824218 6.316406 6.308593 6.316406h.007813 50.53125c3.488281.003906 6.316406-2.824218 6.316406-6.308594 0-.003906 0-.003906 0-.007812v-37.902344h75.800781c3.488281 0 6.316407-2.828125 6.316407-6.316406s-2.828126-6.3125-6.3125-6.3125zm-315.835938 37.902344h-.632812c-13.597657-.015625-24.617188-11.035156-24.632813-24.632813v-13.902343c.015625-13.597657 11.035156-24.617188 24.632813-24.632813h.632812zm37.898438-6.316406c-13.953126 0-25.265626-11.3125-25.265626-25.269532 0-13.953125 11.3125-25.265625 25.265626-25.265625 13.957031 0 25.269531 11.3125 25.269531 25.265625-.015625 13.949219-11.320313 25.253906-25.269531 25.269532zm63.167968 12.632812h-25.265625v-75.800781h25.265625zm44.21875-6.316406c-17.445312 0-31.585937-14.140625-31.585937-31.585938 0-17.441406 14.140625-31.582031 31.585937-31.582031 17.441406 0 31.582032 14.140625 31.582032 31.582031-.019532 17.433594-14.148438 31.5625-31.582032 31.585938zm44.214844-69.484375h12.632812v75.800781h-12.632812zm37.902344 75.800781h-12.636719v-75.800781h12.636719zm0 0"/><path d="m155.984375 21.707031c5.179687-3.445312 8.378906-9.175781 8.585937-15.390625 0-3.488281-2.828124-6.316406-6.316406-6.316406-3.488281 0-6.316406 2.828125-6.316406 6.316406 0 2.136719-.984375 3.132813-4.042969 5.6875-5.179687 3.4375-8.378906 9.167969-8.589843 15.378906.210937 6.214844 3.410156 11.949219 8.589843 15.390626 3.058594 2.546874 4.042969 3.546874 4.042969 5.675781 0 2.027343-.8125 2.972656-4.039062 5.660156-5.179688 3.433594-8.382813 9.160156-8.59375 15.371094 0 3.492187 2.828124 6.316406 6.316406 6.316406 3.488281 0 6.316406-2.828125 6.316406-6.316406 0-2.027344.8125-2.972657 4.042969-5.660157 5.179687-3.433593 8.382812-9.160156 8.589843-15.371093-.207031-6.214844-3.40625-11.941407-8.585937-15.378907-3.058594-2.554687-4.046875-3.554687-4.046875-5.6875 0-2.128906.988281-3.128906 4.046875-5.675781zm0 0"/><path d="m187.566406 21.707031c5.179688-3.445312 8.378906-9.175781 8.589844-15.390625 0-3.488281-2.828125-6.316406-6.316406-6.316406-3.492188 0-6.316406 2.828125-6.316406 6.316406 0 2.136719-.988282 3.132813-4.046876 5.6875-5.179687 3.4375-8.378906 9.167969-8.585937 15.378906.207031 6.214844 3.40625 11.949219 8.585937 15.390626 3.058594 2.546874 4.046876 3.546874 4.046876 5.675781 0 2.027343-.816407 2.972656-4.042969 5.660156-5.179688 3.433594-8.382813 9.160156-8.59375 15.371094 0 3.492187 2.828125 6.316406 6.316406 6.316406 3.492187 0 6.316406-2.828125 6.316406-6.316406 0-2.027344.816407-2.972657 4.042969-5.660157 5.179688-3.433593 8.382812-9.160156 8.59375-15.371093-.210938-6.214844-3.410156-11.941407-8.589844-15.378907-3.058594-2.554687-4.046875-3.554687-4.046875-5.6875 0-2.128906.988281-3.128906 4.046875-5.675781zm0 0"/><path d="m219.152344 21.707031c5.175781-3.445312 8.375-9.175781 8.585937-15.390625 0-3.488281-2.828125-6.316406-6.316406-6.316406s-6.316406 2.828125-6.316406 6.316406c0 2.136719-.988281 3.132813-4.046875 5.6875-5.179688 3.4375-8.378906 9.167969-8.585938 15.378906.207032 6.214844 3.40625 11.949219 8.585938 15.390626 3.058594 2.546874 4.046875 3.546874 4.046875 5.675781 0 2.027343-.816407 2.972656-4.039063 5.660156-5.183594 3.433594-8.386718 9.160156-8.59375 15.371094 0 3.492187 2.828125 6.316406 6.316406 6.316406 3.488282 0 6.316407-2.828125 6.316407-6.316406 0-2.027344.8125-2.972657 4.039062-5.660157 5.179688-3.433593 8.382813-9.160156 8.59375-15.371093-.210937-6.214844-3.410156-11.941407-8.585937-15.378907-3.0625-2.554687-4.046875-3.554687-4.046875-5.6875 0-2.128906.988281-3.128906 4.046875-5.675781zm0 0"/><path d="m88.777344 379c21.371094.011719 40.941406-11.980469 50.628906-31.03125 9.429688 18.242188 27.886719 30.0625 48.402344 31l2.035156.03125c21.371094.011719 40.941406-11.980469 50.628906-31.03125 9.429688 18.242188 27.886719 30.0625 48.402344 31l2.035156.03125c31.351563.042969 56.800782-25.339844 56.84375-56.691406.015625-12.945313-4.390625-25.507813-12.492187-35.605469-9.21875-11.542969-15.777344-24.980469-19.203125-39.355469-1.820313-7.542968-2.914063-15.246094-3.261719-23-.144531-3.488281-3.082031-6.195312-6.566406-6.054687-1.574219.0625-3.066407.714843-4.1875 1.820312-11.933594 11.8125-21.878907 38.011719-26.714844 52.441407-6.078125-4.738282-12.507813-9.003907-19.234375-12.765626-3.046875-1.703124-6.898438-.613281-8.605469 2.433594-.429687.769532-.695312 1.621094-.777343 2.496094-.992188 10.59375-3.1875 21.035156-6.539063 31.132812-1.699219-3.230468-3.699219-6.292968-5.976563-9.148437-9.222656-11.542969-15.777343-24.980469-19.203124-39.355469-1.820313-7.542968-2.914063-15.246094-3.261719-23-.144531-3.488281-3.082031-6.195312-6.566407-6.054687-1.574218.0625-3.066406.714843-4.1875 1.820312-11.9375 11.8125-21.878906 38.011719-26.714843 52.441407-6.078125-4.738282-12.507813-9.003907-19.234375-12.765626-3.046875-1.703124-6.898438-.613281-8.605469 2.433594-.429687.769532-.695313 1.621094-.777344 2.496094-.992187 10.589844-3.1875 21.035156-6.539062 31.128906-1.695313-3.230468-3.699219-6.292968-5.976563-9.140625-9.226562-11.546875-15.78125-24.988281-19.199218-39.363281-1.828126-7.542969-2.917969-15.238281-3.261719-22.992188-.136719-3.484374-3.074219-6.199218-6.558594-6.058593-1.578125.0625-3.074219.710937-4.195313 1.820312-11.933593 11.8125-21.882812 38.011719-26.71875 52.441407-6.078124-4.738282-12.507812-9.003907-19.234374-12.765626-3.046876-1.703124-6.898438-.613281-8.605469 2.433594-.429688.769532-.695313 1.621094-.777344 2.496094-1.074219 12.101562-3.820313 23.992188-8.167969 35.335938-3.082031 7.253906-4.609375 15.070312-4.484375 22.953124.769531 30.140626 24.695313 54.566407 54.816407 55.960938zm0-18.59375-11.355469-18.917969 11.347656-15.125 11.351563 15.128907zm101.066406 0-11.355469-18.917969 11.351563-15.125 11.347656 15.128907zm101.066406 0-11.355468-18.917969 11.351562-15.125 11.347656 15.128907zm-40.738281-55.414062c3.746094-9.421876 6.386719-19.246094 7.871094-29.273438 5.320312 3.210938 10.230469 7.054688 14.628906 11.445312 1.148437 2.25 3.539063 3.582032 6.054687 3.382813 2.648438-.191406 4.890626-2.015625 5.621094-4.566406 4.429688-15.292969 10.34375-30.117188 17.660156-44.257813.496094 2.835938 1.082032 5.6875 1.765626 8.546875 3.859374 16.195313 11.246093 31.335938 21.640624 44.339844 15.238282 19.03125 12.167969 46.8125-6.863281 62.050781-4.570312 3.660156-9.824219 6.375-15.453125 7.988282l12.175782-20.300782c1.320312-2.199218 1.175781-4.984375-.363282-7.039062l-18.953125-25.265625c-2.292969-2.789063-6.414062-3.191407-9.203125-.898438-.328125.269531-.628906.570313-.898437.898438l-18.949219 25.265625c-1.542969 2.054687-1.683594 4.839844-.367188 7.039062l12.128907 20.207032c-18.558594-5.535157-31.457031-22.375-31.972657-41.734376-.105468-6.121093 1.082032-12.195312 3.476563-17.828124zm-101.066406 0c3.746093-9.421876 6.390625-19.246094 7.871093-29.273438 5.320313 3.210938 10.230469 7.054688 14.625 11.445312 1.152344 2.25 3.542969 3.585938 6.058594 3.382813 2.644532-.191406 4.890625-2.015625 5.621094-4.566406 4.429688-15.292969 10.34375-30.117188 17.660156-44.257813.492188 2.835938 1.082032 5.6875 1.765625 8.546875 3.859375 16.195313 11.246094 31.335938 21.640625 44.339844 15.238282 19.03125 12.167969 46.8125-6.863281 62.050781-4.570313 3.660156-9.824219 6.375-15.453125 7.988282l12.175781-20.300782c1.320313-2.199218 1.175781-4.984375-.367187-7.039062l-18.949219-25.265625c-2.292969-2.789063-6.414063-3.191407-9.203125-.898438-.328125.269531-.628906.570313-.898438.898438l-18.953124 25.265625c-1.539063 2.054687-1.683594 4.839844-.363282 7.039062l12.128906 20.207032c-18.558593-5.535157-31.460937-22.375-31.972656-41.734376-.105468-6.121093 1.082032-12.195312 3.476563-17.828124zm-104.542969 17.828124c-.105469-6.121093 1.082031-12.191406 3.476562-17.828124 3.746094-9.421876 6.386719-19.246094 7.871094-29.273438 5.320313 3.210938 10.230469 7.054688 14.625 11.445312 1.148438 2.253907 3.539063 3.589844 6.058594 3.382813 2.648438-.1875 4.890625-2.015625 5.621094-4.566406 4.421875-15.296875 10.339844-30.121094 17.660156-44.265625.492188 2.839844 1.082031 5.691406 1.769531 8.558594 3.855469 16.195312 11.246094 31.335937 21.640625 44.339843 15.238282 19.03125 12.160156 46.816407-6.875 62.054688-4.570312 3.65625-9.820312 6.371093-15.449218 7.980469l12.175781-20.300782c1.320312-2.199218 1.175781-4.984375-.363281-7.035156l-18.949219-25.265625c-2.292969-2.792969-6.414063-3.195313-9.203125-.902344-.328125.269531-.628906.570313-.902344.902344l-18.949219 25.265625c-1.539062 2.050781-1.683593 4.835938-.363281 7.035156l12.125 20.207032c-18.558594-5.535157-31.457031-22.375-31.96875-41.734376zm0 0"/></svg>